<?xml version="1.0" encoding="UTF-8"?>
<svg id="b" data-name="Layer 2" xmlns="http://www.w3.org/2000/svg" width="100.6" height="73.16" viewBox="0 0 100.6 73.16">
  <g id="c" data-name="Layer 1">
    <g id="d" data-name="5ldySj">
      <path d="M86.88,18.27h-13.71l-.01-18.27L8.95.04C3.86.04-.04,4.35,0,9.35v50.08l9.16.01c0,7.73,6.3,13.77,13.8,13.72,7.43-.05,13.63-6.06,13.62-13.73h27.44c0,7.74,6.3,13.78,13.8,13.73,7.44-.05,13.61-6.04,13.63-13.72l9.15-.01v-22.85l-13.72-18.31ZM23.75,66.22c-3.81.48-7.13-2.21-7.64-5.81-.53-3.78,2.11-7.35,6.07-7.75,3.93-.4,7.07,2.47,7.47,6.04.43,3.77-2.33,7.06-5.9,7.52ZM66.66,46.88H6.34V11.45c0-2.98,2.41-5.39,5.38-5.39h54.94v40.82ZM78.61,66.22c-3.81.48-7.13-2.21-7.64-5.81-.53-3.78,2.12-7.35,6.08-7.75,3.92-.4,7.07,2.47,7.47,6.04.42,3.77-2.33,7.06-5.91,7.52ZM73.17,36.57v-11.43l11.41.01,8.88,11.37-20.29.05Z" fill="#020202"/>
    </g>
  </g>
</svg>